<svg width="143" height="122" viewBox="0 0 143 122" fill="none" xmlns="http://www.w3.org/2000/svg">
<path d="M71.5 93.7778V120M59.9167 2H13.5833C10.5112 2 7.56498 3.03601 5.39268 4.88012C3.22038 6.72422 2 9.22537 2 11.8333V83.9444C2 86.5524 3.22038 89.0535 5.39268 90.8977C7.56498 92.7418 10.5112 93.7778 13.5833 93.7778H129.417C132.489 93.7778 135.435 92.7418 137.607 90.8977C139.78 89.0535 141 86.5524 141 83.9444V51.1667L59.9167 2Z" stroke="#F8F8F8" stroke-width="4" stroke-linecap="round" stroke-linejoin="round"/>
<path d="M32.8889 120H110.111M102.389 2L86.9445 15.1111L102.389 28.2222V2ZM125.556 2L141 15.1111L125.556 28.2222V2Z" stroke="#F8F8F8" stroke-width="4" stroke-linecap="round" stroke-linejoin="round"/>
</svg>
